# xmcd
#
# Track frame offsets: 
#        150
#        17475
#        35400
#        53775
#        65675
#        82342
#        106850
#        126387
#        144507
#        160247
#        180285
#        199725
#
# Disc length: 2892 seconds
#
# Revision: 2
# Processed by: cddbd v1.5.2PL0 Copyright (c) Steve Scherf et al.
# Submitted via: ExactAudioCopyFreeDBPlugin 1.0
#
DISCID=a20b4a0c
DTITLE=Howard Tate - Rediscovered
DYEAR=2003
DGENRE=Rhythm and Blues
TTITLE0=Mama Was Right
TTITLE1=Show Me the Man
TTITLE2=Organic Love (100% Natural)
TTITLE3=Sorry Wrong Number
TTITLE4=Either Side of the Same Town
TTITLE5=All I Know is the Way I Feel
TTITLE6=Don't Compromise Yourself
TTITLE7=Don't Need No Monkey on My Back
TTITLE8=She May Be White (But She Be Funky)
TTITLE9=Kiss
TTITLE10=Eternity
TTITLE11=Get It While You Can
EXTD=YEAR: 2003
EXTT0=
EXTT1=
EXTT2=
EXTT3=
EXTT4=
EXTT5=
EXTT6=
EXTT7=
EXTT8=
EXTT9=
EXTT10=
EXTT11=
PLAYORDER=
